<?xml version="1.0" encoding="UTF-8" standalone="no"?>
<!DOCTYPE svg PUBLIC "-//W3C//DTD SVG 1.1//EN" "http://www.w3.org/Graphics/SVG/1.1/DTD/svg11.dtd">
<svg width="100%" height="100%" viewBox="0 0 256 256" version="1.1" xmlns="http://www.w3.org/2000/svg" xmlns:xlink="http://www.w3.org/1999/xlink" xml:space="preserve" xmlns:serif="http://www.serif.com/" style="fill-rule:evenodd;clip-rule:evenodd;stroke-linejoin:round;stroke-miterlimit:2;">
    <g id="Shield">
        <g id="Shield-background" serif:id="Shield background" transform="matrix(13.1601,0,0,13.1601,4.49213,9.55919)">
            <path d="M16.3,11.11C14.669,13.843 12.401,16.142 9.69,17.81L9.39,18L9.09,17.81C6.383,16.137 4.116,13.839 2.48,11.11C0.926,8.378 0.074,5.302 0,2.16L0,1.76L0.37,1.62C3.255,0.542 6.31,-0.007 9.39,0C12.463,-0.004 15.512,0.544 18.39,1.62L18.77,1.76L18.77,2.16C18.708,5.319 17.859,8.412 16.3,11.16L16.3,11.11Z" style="fill:rgb(19,45,76);"/>
        </g>
        <g id="Shield-foreground" serif:id="Shield foreground" transform="matrix(11.3701,0,0,11.3701,21.292,25.6698)">
            <path d="M16.3,11.11C14.669,13.843 12.401,16.142 9.69,17.81L9.39,18L9.09,17.81C6.383,16.137 4.116,13.839 2.48,11.11C0.926,8.378 0.074,5.302 0,2.16L0,1.76L0.37,1.62C3.255,0.542 6.31,-0.007 9.39,0C12.463,-0.004 15.512,0.544 18.39,1.62L18.77,1.76L18.77,2.16C18.708,5.319 17.859,8.412 16.3,11.16L16.3,11.11Z" style="fill:rgb(54,98,140);"/>
        </g>
    </g>
    <g id="Checkmark" transform="matrix(0.242995,0,0,0.226509,28.6683,35.9304)">
        <path d="M707.137,95.414C706.211,95.191 705.57,95.266 704.816,95.551C700.523,97.18 662.031,121.813 642.387,135.508C537.148,208.863 454.957,298.793 381.715,420.707C372.035,436.824 359.836,458.449 341.426,492.125C335.141,503.621 334.938,503.898 333.953,502.344C328.844,494.243 323.859,486.952 323.859,486.952C323.859,486.952 323.601,485.832 317.361,478.582C283.935,439.754 246.111,408.223 200.806,381.426L195.876,378.512L190.279,382.661C184.271,387.114 169.579,401.434 162.466,409.77C161.298,411.137 161.345,411.211 161.181,411.512C161.228,411.528 161.275,411.539 161.322,411.559C161.423,411.598 161.529,411.637 161.63,411.676C161.853,411.782 162.068,411.899 162.275,412.036C162.435,412.145 162.595,412.25 162.747,412.371C162.872,412.481 163.025,412.559 163.146,412.676C163.318,412.821 163.482,412.973 163.634,413.137C163.716,413.235 163.806,413.325 163.896,413.418C163.908,413.434 163.919,413.45 163.931,413.461L165.786,414.754C179.33,424.18 224.829,476.845 224.829,476.845C224.829,476.845 236.674,488.9 270.949,543.656C296.172,583.945 320.887,627.398 331.047,649.313L335.184,658.238L346.082,667.488C352.078,672.578 357.281,676.66 357.648,676.559C358.016,676.461 359.445,672.262 360.824,667.234C368.273,640.066 386.598,594.605 406.105,554.895C451.465,462.555 505.988,380.77 568.449,311.383C618.355,255.941 703.68,174.203 739.621,147.402C742.148,145.516 744.219,143.574 744.219,143.09C744.219,142.602 742.094,137.969 739.5,132.793C730.051,113.941 720.219,101.559 711.156,97.098C709.27,96.168 708.063,95.641 707.137,95.414Z" style="fill:rgb(0,167,45);fill-rule:nonzero;"/>
    </g>
</svg>
